<svg version="1.1" id="Layer_1" xmlns="http://www.w3.org/2000/svg" xmlns:xlink="http://www.w3.org/1999/xlink" x="0px" y="0px"
	 width="100%" viewBox="0 0 200 78" enable-background="new 0 0 200 78" xml:space="preserve">
<path fill="#FBFCFC" opacity="1.000000" stroke="none" 
	d="
M126.000000,79.000000 
	C84.000008,79.000000 42.500019,79.000000 1.000022,79.000000 
	C1.000015,53.000015 1.000015,27.000032 1.000007,1.000036 
	C67.666634,1.000024 134.333267,1.000024 200.999939,1.000012 
	C200.999954,26.999962 200.999954,52.999924 200.999969,78.999939 
	C176.166672,79.000000 151.333328,79.000000 126.000000,79.000000 
M33.997734,37.004108 
	C33.997734,37.004108 33.963943,36.979591 33.611858,37.557228 
	C26.471844,41.499115 19.361656,45.496334 12.182768,49.366108 
	C5.981668,52.708801 5.698010,53.080330 9.623837,58.952530 
	C10.507247,60.273930 12.936904,61.280605 14.601589,61.208302 
	C17.885769,61.065647 21.139454,60.098503 24.393724,59.415073 
	C31.215248,57.982487 38.028988,56.512821 44.845921,55.058384 
	C44.949482,55.362164 45.053043,55.665943 45.156605,55.969723 
	C37.358063,60.549629 29.559519,65.129532 21.577530,69.817169 
	C35.543983,81.850426 63.127037,73.960999 69.430138,60.297852 
	C63.667770,61.376789 58.090160,62.421135 52.512550,63.465481 
	C52.405849,62.992458 52.299149,62.519440 52.192448,62.046417 
	C58.536777,58.477417 64.878853,54.904388 71.226089,51.340565 
	C77.320229,47.918846 78.353607,45.343910 76.306114,37.924866 
	C67.158745,39.807590 57.964256,41.700012 48.769772,43.592434 
	C48.680893,43.139935 48.592014,42.687435 48.503136,42.234932 
	C52.301472,40.180553 56.098827,38.124355 59.898418,36.072289 
	C63.853733,33.936108 67.872375,31.906794 71.732742,29.611153 
	C72.991127,28.862827 74.699196,27.443686 74.724731,26.298414 
	C74.830345,21.562016 70.379311,18.324432 65.633835,19.305149 
	C57.654385,20.954210 49.685299,22.653740 41.700916,24.278267 
	C40.629082,24.496347 39.493664,24.401907 38.387688,24.452185 
	C38.279781,24.034401 38.171875,23.616619 38.063969,23.198835 
	C45.404156,18.886225 52.744343,14.573613 60.307720,10.129871 
	C44.475723,-1.294979 18.930349,6.491635 12.533641,20.069910 
	C19.179283,18.697931 25.596066,17.373201 32.012848,16.048471 
	C25.348864,20.950077 18.528215,25.382360 11.218326,28.753914 
	C5.183153,31.537527 4.247880,35.978634 4.575268,42.199585 
	C6.559482,41.954639 8.316131,41.825188 10.038855,41.510185 
	C18.038670,40.047432 26.029079,38.533253 33.997734,37.004108 
M148.407990,45.270702 
	C147.418198,44.894779 146.428406,44.518856 145.438599,44.142933 
	C145.522797,43.635944 145.606979,43.128952 145.691162,42.621964 
	C149.013321,42.413692 152.335480,42.205421 155.554489,42.003616 
	C156.916580,32.780430 156.192047,31.923100 147.615326,32.096130 
	C147.117889,32.106167 146.620163,32.101650 146.122604,32.106796 
	C143.324142,32.135735 141.772110,33.421082 141.806854,36.347237 
	C141.826553,38.005562 141.795883,39.664421 141.798065,41.323029 
	C141.807800,48.732601 141.978424,49.052650 149.243988,48.815121 
	C151.506195,48.741158 153.733353,47.595169 155.976562,46.939949 
	C153.774780,46.386284 151.572983,45.832619 148.407990,45.270702 
M103.324165,40.840481 
	C104.979958,40.751686 106.681740,40.876713 108.282570,40.532394 
	C112.422325,39.641987 112.361168,36.302982 112.337540,33.062298 
	C112.315498,30.038031 111.809082,27.087656 108.104942,26.849371 
	C103.705887,26.566380 99.274704,26.782793 94.647285,26.782793 
	C94.647285,33.407417 94.553162,39.384079 94.728325,45.352844 
	C94.762527,46.518272 95.841911,47.653027 96.439224,48.801926 
	C97.048981,47.680767 98.201378,46.541882 98.165428,45.441826 
	C98.062904,42.304356 98.560478,40.157234 103.324165,40.840481 
M185.587265,48.854694 
	C186.049591,48.498425 186.968826,47.977165 186.908356,47.809666 
	C184.496170,41.129311 182.088776,34.441666 179.336868,27.899624 
	C179.104538,27.347315 175.379669,27.318432 175.147308,27.855480 
	C172.241653,34.570805 169.681580,41.435654 167.032867,48.262154 
	C167.433075,48.566975 167.833298,48.871792 168.233505,49.176613 
	C169.207962,48.595051 170.836334,48.186165 171.043411,47.401981 
	C171.929245,44.047199 174.308395,44.274471 177.022324,43.722893 
	C181.751099,42.761829 182.571808,46.608772 185.587265,48.854694 
M132.381073,35.023224 
	C130.762878,37.390606 129.924606,35.663712 128.639389,34.522053 
	C127.365135,33.390129 125.655777,32.748020 124.137253,31.891087 
	C123.601418,32.267246 123.065582,32.643410 122.529747,33.019569 
	C130.403152,38.258072 127.085083,43.404461 122.465492,48.540134 
	C123.039009,48.862110 123.612526,49.184086 124.186035,49.506065 
	C126.449875,47.806881 128.713715,46.107700 130.745560,44.582645 
	C132.991913,46.216213 135.225037,47.840164 137.458176,49.464111 
	C138.018143,49.072243 138.578125,48.680370 139.138107,48.288498 
	C133.640152,43.242950 131.950012,38.077614 139.031509,32.636330 
	C138.412842,32.322701 137.794189,32.009068 137.175522,31.695438 
	C135.732010,32.606106 134.288498,33.516773 132.381073,35.023224 
M164.117264,45.118168 
	C164.116699,39.797150 164.201721,34.473579 164.043152,29.157274 
	C164.011566,28.097795 163.048645,27.066095 162.515198,26.021593 
	C161.852753,26.937025 160.644806,27.836157 160.616898,28.770544 
	C160.443161,34.585075 160.465424,40.409222 160.611023,46.225468 
	C160.632660,47.090393 161.648102,47.930447 162.203812,48.782013 
	C162.840637,47.861496 163.477478,46.940983 164.117264,45.118168 
M117.413918,32.240219 
	C117.041451,37.492542 116.646172,42.743668 116.368912,48.001015 
	C116.356071,48.244595 117.423393,48.794373 117.944984,48.745579 
	C118.448929,48.698433 119.325485,48.037865 119.306374,47.686562 
	C119.026230,42.535286 118.623474,37.390678 117.413918,32.240219 
M194.247391,35.518616 
	C194.245529,33.526608 194.443848,31.505312 194.158447,29.554787 
	C194.012939,28.560307 192.998901,27.692905 192.377441,26.768064 
	C191.821625,27.608521 190.806366,28.437157 190.784378,29.291348 
	C190.639267,34.931629 190.636978,40.579208 190.781036,46.219486 
	C190.803238,47.088444 191.817825,47.932053 192.373459,48.787384 
	C192.996155,47.848019 194.083130,46.943096 194.155853,45.962925 
	C194.388565,42.826027 194.245468,39.661247 194.247391,35.518616 
z"/>
<path fill="#75B4BF" opacity="1.000000" stroke="none" 
	d="
M34.022858,37.037483 
	C26.029079,38.533253 18.038670,40.047432 10.038855,41.510185 
	C8.316131,41.825188 6.559482,41.954639 4.575268,42.199585 
	C4.247880,35.978634 5.183153,31.537527 11.218326,28.753914 
	C18.528215,25.382360 25.348864,20.950077 32.012848,16.048471 
	C25.596066,17.373201 19.179283,18.697931 12.533641,20.069910 
	C18.930349,6.491635 44.475723,-1.294979 60.307720,10.129871 
	C52.744343,14.573613 45.404156,18.886225 38.063969,23.198835 
	C38.171875,23.616619 38.279781,24.034401 38.387688,24.452185 
	C39.493664,24.401907 40.629082,24.496347 41.700916,24.278267 
	C49.685299,22.653740 57.654385,20.954210 65.633835,19.305149 
	C70.379311,18.324432 74.830345,21.562016 74.724731,26.298414 
	C74.699196,27.443686 72.991127,28.862827 71.732742,29.611153 
	C67.872375,31.906794 63.853733,33.936108 59.898418,36.072289 
	C56.098827,38.124355 52.301472,40.180553 48.503136,42.234932 
	C48.592014,42.687435 48.680893,43.139935 48.769772,43.592434 
	C57.964256,41.700012 67.158745,39.807590 76.306114,37.924866 
	C78.353607,45.343910 77.320229,47.918846 71.226089,51.340565 
	C64.878853,54.904388 58.536777,58.477417 52.192448,62.046417 
	C52.299149,62.519440 52.405849,62.992458 52.512550,63.465481 
	C58.090160,62.421135 63.667770,61.376789 69.430138,60.297852 
	C63.127037,73.960999 35.543983,81.850426 21.577530,69.817169 
	C29.559519,65.129532 37.358063,60.549629 45.156605,55.969723 
	C45.053043,55.665943 44.949482,55.362164 44.845921,55.058384 
	C38.028988,56.512821 31.215248,57.982487 24.393724,59.415073 
	C21.139454,60.098503 17.885769,61.065647 14.601589,61.208302 
	C12.936904,61.280605 10.507247,60.273930 9.623837,58.952530 
	C5.698010,53.080330 5.981668,52.708801 12.182768,49.366108 
	C19.361656,45.496334 26.471844,41.499115 33.909523,37.223206 
	C34.207184,36.889183 34.247147,36.598911 34.247147,36.598911 
	C34.247147,36.598911 34.022858,37.037483 34.022858,37.037483 
z"/>
<path fill="#375361" opacity="1.000000" stroke="none" 
	d="
M148.889587,45.274830 
	C151.572983,45.832619 153.774780,46.386284 155.976562,46.939949 
	C153.733353,47.595169 151.506195,48.741158 149.243988,48.815121 
	C141.978424,49.052650 141.807800,48.732601 141.798065,41.323029 
	C141.795883,39.664421 141.826553,38.005562 141.806854,36.347237 
	C141.772110,33.421082 143.324142,32.135735 146.122604,32.106796 
	C146.620163,32.101650 147.117889,32.106167 147.615326,32.096130 
	C156.192047,31.923100 156.916580,32.780430 155.554489,42.003616 
	C152.335480,42.205421 149.013321,42.413692 145.691162,42.621964 
	C145.606979,43.128952 145.522797,43.635944 145.438599,44.142933 
	C146.428406,44.518856 147.418198,44.894779 148.889587,45.274830 
z"/>
<path fill="#2A4857" opacity="1.000000" stroke="none" 
	d="
M102.863602,40.840691 
	C98.560478,40.157234 98.062904,42.304356 98.165428,45.441826 
	C98.201378,46.541882 97.048981,47.680767 96.439224,48.801926 
	C95.841911,47.653027 94.762527,46.518272 94.728325,45.352844 
	C94.553162,39.384079 94.647285,33.407417 94.647285,26.782793 
	C99.274704,26.782793 103.705887,26.566380 108.104942,26.849371 
	C111.809082,27.087656 112.315498,30.038031 112.337540,33.062298 
	C112.361168,36.302982 112.422325,39.641987 108.282570,40.532394 
	C106.681740,40.876713 104.979958,40.751686 102.863602,40.840691 
M106.049522,37.144684 
	C109.376640,36.565941 109.757225,32.999088 108.396240,32.116165 
	C105.768539,30.411465 102.158012,30.221720 98.518204,29.292412 
	C98.518204,32.713001 98.518204,34.735920 98.518204,37.200798 
	C100.966858,37.200798 103.067657,37.200798 106.049522,37.144684 
z"/>
<path fill="#324E5D" opacity="1.000000" stroke="none" 
	d="
M185.199463,48.820980 
	C182.571808,46.608772 181.751099,42.761829 177.022324,43.722893 
	C174.308395,44.274471 171.929245,44.047199 171.043411,47.401981 
	C170.836334,48.186165 169.207962,48.595051 168.233505,49.176613 
	C167.833298,48.871792 167.433075,48.566975 167.032867,48.262154 
	C169.681580,41.435654 172.241653,34.570805 175.147308,27.855480 
	C175.379669,27.318432 179.104538,27.347315 179.336868,27.899624 
	C182.088776,34.441666 184.496170,41.129311 186.908356,47.809666 
	C186.968826,47.977165 186.049591,48.498425 185.199463,48.820980 
M178.410126,40.255119 
	C182.083969,37.215359 177.865936,35.516743 176.691193,33.011635 
	C175.842072,35.180801 174.992935,37.349968 173.980453,39.936428 
	C175.661621,40.096661 176.628616,40.188831 178.410126,40.255119 
z"/>
<path fill="#375361" opacity="1.000000" stroke="none" 
	d="
M132.613037,34.725334 
	C134.288498,33.516773 135.732010,32.606106 137.175522,31.695438 
	C137.794189,32.009068 138.412842,32.322701 139.031509,32.636330 
	C131.950012,38.077614 133.640152,43.242950 139.138107,48.288498 
	C138.578125,48.680370 138.018143,49.072243 137.458176,49.464111 
	C135.225037,47.840164 132.991913,46.216213 130.745560,44.582645 
	C128.713715,46.107700 126.449875,47.806881 124.186035,49.506065 
	C123.612526,49.184086 123.039009,48.862110 122.465492,48.540134 
	C127.085083,43.404461 130.403152,38.258072 122.529747,33.019569 
	C123.065582,32.643410 123.601418,32.267246 124.137253,31.891087 
	C125.655777,32.748020 127.365135,33.390129 128.639389,34.522053 
	C129.924606,35.663712 130.762878,37.390606 132.613037,34.725334 
z"/>
<path fill="#33505E" opacity="1.000000" stroke="none" 
	d="
M164.115784,45.569321 
	C163.477478,46.940983 162.840637,47.861496 162.203796,48.782013 
	C161.648102,47.930447 160.632660,47.090393 160.611023,46.225468 
	C160.465424,40.409222 160.443161,34.585075 160.616898,28.770544 
	C160.644806,27.836157 161.852753,26.937025 162.515198,26.021591 
	C163.048645,27.066095 164.011566,28.097795 164.043152,29.157274 
	C164.201721,34.473579 164.116699,39.797150 164.115784,45.569321 
z"/>
<path fill="#2F4B5B" opacity="1.000000" stroke="none" 
	d="
M117.831909,32.242352 
	C118.623474,37.390678 119.026230,42.535286 119.306374,47.686562 
	C119.325485,48.037865 118.448929,48.698433 117.944984,48.745579 
	C117.423393,48.794373 116.356071,48.244595 116.368912,48.001015 
	C116.646172,42.743668 117.041451,37.492542 117.831909,32.242352 
z"/>
<path fill="#2A4856" opacity="1.000000" stroke="none" 
	d="
M194.247406,36.012924 
	C194.245468,39.661247 194.388565,42.826027 194.155853,45.962925 
	C194.083130,46.943096 192.996155,47.848019 192.373459,48.787384 
	C191.817825,47.932053 190.803238,47.088444 190.781036,46.219486 
	C190.636978,40.579208 190.639267,34.931629 190.784378,29.291348 
	C190.806366,28.437157 191.821625,27.608521 192.377441,26.768063 
	C192.998901,27.692905 194.012939,28.560307 194.158447,29.554787 
	C194.443848,31.505312 194.245529,33.526608 194.247406,36.012924 
z"/>
<path fill="#FBFCFC" opacity="1.000000" stroke="none" 
	d="
M34.010296,37.020798 
	C34.022858,37.037483 34.247147,36.598911 34.247147,36.598911 
	C34.247147,36.598911 34.207184,36.889183 34.085564,36.934387 
	C33.963943,36.979591 33.997734,37.004108 34.010296,37.020798 
z"/>
<path fill="#E5E8EA" opacity="1.000000" stroke="none" 
	d="
M105.608986,37.172741 
	C103.067657,37.200798 100.966858,37.200798 98.518204,37.200798 
	C98.518204,34.735920 98.518204,32.713001 98.518204,29.292412 
	C102.158012,30.221720 105.768539,30.411465 108.396240,32.116165 
	C109.757225,32.999088 109.376640,36.565941 105.608986,37.172741 
z"/>
<path fill="#D9DFE1" opacity="1.000000" stroke="none" 
	d="
M178.002869,40.268059 
	C176.628616,40.188831 175.661621,40.096661 173.980453,39.936428 
	C174.992935,37.349968 175.842072,35.180801 176.691193,33.011635 
	C177.865936,35.516743 182.083969,37.215359 178.002869,40.268059 
z"/>
</svg>